<svg width="20" height="20" viewBox="0 0 20 20" fill="none" xmlns="http://www.w3.org/2000/svg">
<path d="M10 4C6.68663 4 4 6.68663 4 10C4 13.3134 6.68663 16 10 16C13.3134 16 16 13.3134 16 10C16 6.68663 13.3134 4 10 4Z" stroke="black" stroke-miterlimit="10"/>
<path d="M9.08789 9.08691H10.1314V12.8695" stroke="black" stroke-linecap="round" stroke-linejoin="round"/>
<path d="M8.69531 13H11.5649" stroke="black" stroke-miterlimit="10" stroke-linecap="round"/>
<path d="M10.0005 6.18164C9.89265 6.18164 9.78719 6.21363 9.69749 6.27357C9.6078 6.3335 9.53788 6.41869 9.4966 6.51836C9.45531 6.61803 9.44451 6.7277 9.46556 6.83351C9.48661 6.93932 9.53855 7.03651 9.61484 7.11279C9.69112 7.18907 9.78831 7.24102 9.89412 7.26207C9.99993 7.28312 10.1096 7.27231 10.2093 7.23103C10.3089 7.18975 10.3941 7.11983 10.4541 7.03013C10.514 6.94043 10.546 6.83498 10.546 6.7271C10.546 6.58243 10.4885 6.44369 10.3862 6.3414C10.2839 6.23911 10.1452 6.18164 10.0005 6.18164Z" fill="#0B0701"/>
</svg>
