<svg width="300" height="33" viewBox="0 0 300 33" fill="none" xmlns="http://www.w3.org/2000/svg">
<mask id="mask0_848_5933" style="mask-type:alpha" maskUnits="userSpaceOnUse" x="0" y="0" width="300" height="33">
<path d="M270.674 0.62583C265.99 1.45247 260.78 3.33122 255.52 5.53552C256.171 5.96138 256.772 6.4122 257.373 6.91318C265.088 3.70693 272.929 1.30212 281.496 2.22896C302.187 4.48341 300.032 22.1933 293.169 25.6752C289.411 27.579 280.369 26.9026 279.542 19.1373C279.291 16.7575 279.893 14.1023 281.471 12.3739C282.373 11.397 282.097 11.5723 283.224 11.948C284.527 12.424 285.905 12.7246 287.057 11.9982C290.038 10.0945 285.604 6.56244 281.07 10.0192C274.482 15.0291 276.436 29.4325 289.962 28.5557C299.932 27.9045 302.863 14.979 297.001 7.4642C291.34 0.225049 279.592 -0.977297 270.674 0.62583Z" fill="black"/>
<path d="M29.3261 0.625828C34.0104 1.45247 39.2206 3.33122 44.481 5.53552C43.8298 5.96138 43.2285 6.4122 42.6273 6.91318C34.9121 3.70693 27.0716 1.30212 18.5047 2.22896C-2.18608 4.48341 -0.031706 22.1934 6.83174 25.6753C10.5891 27.5791 19.632 26.9027 20.4587 19.1374C20.7092 16.7576 20.108 14.1024 18.5299 12.374C17.628 11.3971 17.9036 11.5724 16.7764 11.9481C15.4737 12.4242 14.0961 12.7248 12.9438 11.9983C9.96288 10.0946 14.3967 6.56255 18.9307 10.0194C25.5186 15.0292 23.5647 29.4327 10.0381 28.5559C0.0683732 27.9047 -2.86237 14.9792 2.99924 7.46431C8.66034 0.225047 20.4085 -0.977299 29.3261 0.625828Z" fill="black"/>
<path d="M264.437 17.2589H276.16C276.21 16.6327 276.285 16.0064 276.411 15.4053H263.961C264.136 16.0315 264.312 16.6327 264.437 17.2589Z" fill="black"/>
<path d="M35.5636 17.2589H23.8404C23.7904 16.6327 23.7151 16.0064 23.5898 15.4053H36.0395C35.8641 16.0315 35.6888 16.6327 35.5636 17.2589Z" fill="black"/>
<path d="M280.795 17.2589H296.651C296.701 16.6327 296.701 16.0064 296.651 15.4053H281.196C280.995 16.0064 280.87 16.6327 280.795 17.2589Z" fill="black"/>
<path d="M19.2063 17.2589H3.35012C3.29996 16.6327 3.29996 16.0064 3.35012 15.4053H18.8056C19.006 16.0064 19.1313 16.6327 19.2063 17.2589Z" fill="black"/>
<path d="M253.064 8.79254C252.313 8.31664 251.561 7.89078 250.81 7.54004C246.451 9.46883 242.143 11.4727 238.26 13.076L223.205 18.662C220.45 19.6139 214.914 21.0668 214.889 22.8703C214.864 24.9244 218.821 24.1228 218.872 22.5697V22.3442L230.77 18.1861C237.208 15.8314 243.57 13.076 249.908 10.2204C250.96 9.74446 252.012 9.26856 253.064 8.79254Z" fill="black"/>
<path d="M46.9355 8.79254C47.6871 8.31664 48.4385 7.89078 49.19 7.54004C53.5486 9.46883 57.8571 11.4727 61.7397 13.076L76.7944 18.662C79.5498 19.6139 85.0857 21.0668 85.1107 22.8703C85.1358 24.9244 81.178 24.1228 81.1278 22.5697V22.3442L69.2296 18.1861C62.7919 15.8314 56.4294 13.076 50.0918 10.2204C49.0398 9.74446 47.9875 9.26856 46.9355 8.79254Z" fill="black"/>
<path d="M228.341 15.4053H215.29L214.413 15.8311C213.437 16.307 212.485 16.7829 211.508 17.2589H223.356L228.341 15.4053Z" fill="black"/>
<path d="M71.6602 15.4053H84.711L85.5878 15.8311C86.5647 16.307 87.5166 16.7829 88.4935 17.2589H76.6451L71.6602 15.4053Z" fill="black"/>
<path d="M155.447 17.2588H192.696C192.946 16.9833 193.172 16.6827 193.397 16.3821C193.648 16.0816 193.873 15.7559 194.099 15.4053H155.447L155.447 17.2588Z" fill="black"/>
<path d="M144.553 17.2588H107.305C107.055 16.9833 106.829 16.6827 106.604 16.3821C106.353 16.0816 106.128 15.7559 105.902 15.4053H144.554V17.2588H144.553Z" fill="black"/>
<path d="M258.5 15.4053H241.241C239.738 16.0315 238.235 16.6578 236.732 17.2589H259.227C259.052 16.6327 258.801 16.0064 258.5 15.4053Z" fill="black"/>
<path d="M41.4999 15.4053H58.7588C60.2617 16.0315 61.7648 16.6578 63.2677 17.2589H40.7734C40.9486 16.6327 41.1992 16.0064 41.4999 15.4053Z" fill="black"/>
<path d="M223.632 4.08211C215.817 6.6872 204.57 12.8994 196.579 17.6338C197.13 16.8573 197.581 16.1058 197.957 15.3543C198.432 14.3272 198.808 13.3253 199.034 12.2732C199.309 11.171 199.459 10.0187 199.434 8.84146C199.384 7.78935 199.209 6.73735 198.858 5.76036C198.432 4.70825 197.806 3.73137 196.954 2.90473C196.153 2.12824 195.151 1.50199 193.999 1.07613C192.871 0.650274 191.569 0.449883 190.316 0.424805C189.014 0.424805 187.736 0.600117 186.684 0.975938C185.732 1.32656 184.956 1.82766 184.38 2.3536C183.628 3.08004 183.202 3.88161 183.102 4.55801C183.027 5.00895 183.102 5.40973 183.252 5.73528C183.403 6.06094 183.628 6.28641 183.904 6.46173C184.204 6.61208 184.53 6.6872 184.881 6.63704C185.231 6.587 185.582 6.43665 185.883 6.13606C186.584 5.50981 187.06 4.20727 187.511 2.8295C188.287 2.57895 189.289 2.45379 190.291 2.45379C191.318 2.47887 192.396 2.65418 193.297 2.97985C194.174 3.30551 194.926 3.78141 195.552 4.3575C196.178 4.95868 196.654 5.68512 196.955 6.48669C197.23 7.23821 197.38 8.06485 197.406 8.89149C197.431 9.86837 197.305 10.8454 197.055 11.8222C196.854 12.724 196.554 13.6007 196.128 14.4524C195.702 15.3291 195.126 16.2059 194.425 17.1578C188.488 24.9231 175.337 28.9811 165.968 27.378C158.804 26.1756 152.893 21.316 153.444 13.7261C153.819 8.14009 159.656 7.11306 163.413 7.91462C164.015 9.21716 164.741 10.8704 166.019 11.5969C168.048 12.7492 170.352 11.3714 169.676 9.34243C168.624 6.18622 163.288 4.80856 159.506 5.28446C148.334 6.66223 149.661 18.1849 154.045 23.6957C162.111 33.8657 180.121 30.0834 190.166 26.1004C205.045 20.1637 228.366 4.88356 243.446 5.28434C247.855 5.38454 251.086 6.36141 254.293 8.71607C266.592 17.7839 259.703 31.3607 249.383 30.0832C247.179 29.8327 245.25 28.7305 243.596 27.6033C243.922 25.5242 244.248 23.2448 242.745 22.3429C239.714 20.5394 234.979 26.6263 245.049 31.4107C256.722 36.9467 268.871 24.0212 260.855 11.9223C253.04 0.124335 235.631 0.0742963 223.632 4.08211Z" fill="black"/>
<path d="M76.3689 4.08211C84.1843 6.6872 95.4315 12.8994 103.422 17.6338C102.871 16.8573 102.42 16.1058 102.045 15.3543C101.569 14.3272 101.193 13.3253 100.967 12.2732C100.692 11.171 100.542 10.0187 100.567 8.84146C100.617 7.78935 100.792 6.73735 101.143 5.76036C101.569 4.70825 102.195 3.73137 103.047 2.90473C103.848 2.12824 104.85 1.50199 106.003 1.07613C107.13 0.650274 108.432 0.449883 109.685 0.424805C110.987 0.424805 112.265 0.600117 113.317 0.975938C114.269 1.32656 115.045 1.82766 115.621 2.3536C116.373 3.08004 116.799 3.88161 116.899 4.55801C116.974 5.00895 116.899 5.40973 116.749 5.73528C116.598 6.06094 116.373 6.28641 116.097 6.46173C115.797 6.61208 115.471 6.6872 115.121 6.63704C114.77 6.587 114.419 6.43665 114.119 6.13606C113.417 5.50981 112.941 4.20727 112.49 2.8295C111.714 2.57895 110.712 2.45379 109.71 2.45379C108.683 2.47887 107.606 2.65418 106.704 2.97985C105.827 3.30551 105.076 3.78141 104.449 4.3575C103.823 4.95868 103.347 5.68512 103.047 6.48669C102.771 7.23821 102.621 8.06485 102.596 8.89149C102.571 9.86837 102.696 10.8454 102.946 11.8222C103.147 12.724 103.447 13.6007 103.873 14.4524C104.299 15.3291 104.875 16.2059 105.577 17.1578C111.513 24.9231 124.664 28.9811 134.033 27.378C141.197 26.1756 147.108 21.316 146.557 13.7261C146.182 8.14009 140.345 7.11306 136.588 7.91462C135.987 9.21716 135.26 10.8704 133.983 11.5969C131.954 12.7492 129.649 11.3714 130.325 9.34243C131.378 6.18622 136.713 4.80856 140.496 5.28446C151.668 6.66223 150.34 18.1849 145.956 23.6957C137.89 33.8657 119.88 30.0834 109.835 26.1004C94.9558 20.1637 71.6348 4.88356 56.5551 5.28434C52.1464 5.38454 48.915 6.36141 45.7087 8.71607C33.4095 17.7839 40.2981 31.3607 50.6184 30.0832C52.8227 29.8327 54.7514 28.7305 56.4047 27.6033C56.0792 25.5242 55.7534 23.2448 57.2564 22.3429C60.2874 20.5394 65.0218 26.6263 54.952 31.4107C43.2789 36.9467 31.1299 24.0212 39.1458 11.9223C46.9609 0.124335 64.3702 0.0742963 76.3689 4.08211Z" fill="black"/>
</mask>
<g mask="url(#mask0_848_5933)">
<rect x="-17.25" y="-18.75" width="325.5" height="57.7501" fill="url(#paint0_linear_848_5933)"/>
<rect x="-17.25" y="-18.75" width="325.5" height="57.7501" fill="url(#paint1_linear_848_5933)" style="mix-blend-mode:overlay"/>
<rect x="-17.25" y="-18.75" width="325.5" height="57.7501" fill="#FFEECB" style="mix-blend-mode:color"/>
</g>
<defs>
<linearGradient id="paint0_linear_848_5933" x1="0.796906" y1="17.3691" x2="117.528" y2="-136.756" gradientUnits="userSpaceOnUse">
<stop stop-color="#888054"/>
<stop offset="0.172016" stop-color="#A7A288"/>
<stop offset="0.309897" stop-color="#746E49"/>
<stop offset="0.45741" stop-color="#C1BC98"/>
<stop offset="0.494126" stop-color="#847E60"/>
<stop offset="0.67536" stop-color="#B5AE81"/>
<stop offset="0.708885" stop-color="#7E7A5E"/>
<stop offset="0.823421" stop-color="#6D6A4C"/>
<stop offset="0.925155" stop-color="#B3AE7F"/>
<stop offset="1" stop-color="#6F6A4F"/>
</linearGradient>
<linearGradient id="paint1_linear_848_5933" x1="112.688" y1="10.125" x2="110.355" y2="-24.1905" gradientUnits="userSpaceOnUse">
<stop stop-color="white" stop-opacity="0"/>
<stop offset="1" stop-color="white"/>
</linearGradient>
</defs>
</svg>
